# xmcd CD database file
#
# Track frame offsets:
#	183
#	16368
#	31955
#	42473
#	56433
#	60383
#	75455
#	89238
#	107713
#	119995
#	131990
#	147513
#	161038
#	176595
#	187775
#	203998
#
# Disc length: 2889 seconds
#
# Revision: 0
# Processed by: cddbd v1.5.1PL0 Copyright (c) Steve Scherf et al.
# Submitted via: CDex 1.51
#
DISCID=ea0b4710
DTITLE=Various Artist - Jazz For Ever
DYEAR=1900
DGENRE=Jazz
TTITLE0=In The Mood/The Glenn Miller Orchestra
TTITLE1=Anchors A Weigh/Herb Miller Orchestra
TTITLE2=The Lady Is A Tramp/The String Of Pearls Orchestra
TTITLE3=Pennsylvania 65000/The Glenn Miller Orchestra
TTITLE4=Moonlight Serenade/The Glenn Miller Orchestra
TTITLE5=I'l Never Smile Again/The String Of Pearls Orchestra
TTITLE6=I Get A Kick Out Of You/The String Of Pearls Orchestra
TTITLE7=Sing Sing Sing/The String Of Pearls Orchestra
TTITLE8=1940 ' Medly/The String Of Pearls Orchestra
TTITLE9=Trumpet Blues and Cantabile/The String Of Pearls Orchestra
TTITLE10=American Patrol/The Glenn Miller Orchestra
TTITLE11=On A Little Street In Singapore/The Glenn Miller Orchestra
TTITLE12=Begin The Beguine/The Glenn Miller Orchestra
TTITLE13=Adios/The String Of Pearls Orchestra
TTITLE14=I've Got You Under My Skin/The String Of Pearls Orchestra
TTITLE15=Song Of The Volga Boatman/The String Of Pearls Orchestra
EXTD=
EXTT0=
EXTT1=
EXTT2=
EXTT3=
EXTT4=
EXTT5=
EXTT6=
EXTT7=
EXTT8=
EXTT9=
EXTT10=
EXTT11=
EXTT12=
EXTT13=
EXTT14=
EXTT15=
PLAYORDER=
